<?xml version="1.0" encoding="UTF-8"?>
<svg width="520" height="110" viewBox="0 0 520 110" xmlns="http://www.w3.org/2000/svg">
  <!-- Fond blanc de la plaque -->
  <rect x="0" y="0" width="520" height="110" rx="8" fill="white" stroke="#000000" stroke-width="3"/>
  
  <!-- Bande bleue européenne -->
  <rect x="5" y="5" width="50" height="100" fill="#003399" rx="4"/>
  
  <!-- Étoiles européennes -->
  <g fill="#FFCC00">
    <!-- Étoile du haut -->
    <path d="M30,15 L31.5,19 L36,19 L32.5,22 L34,26 L30,23 L26,26 L27.5,22 L24,19 L28.5,19 Z"/>
    <!-- Étoiles circulaires -->
    <path d="M18,25 L19,27.5 L21.5,27.5 L19.5,29.5 L20.5,32 L18,30 L15.5,32 L16.5,29.5 L14.5,27.5 L17,27.5 Z"/>
    <path d="M42,25 L43,27.5 L45.5,27.5 L43.5,29.5 L44.5,32 L42,30 L39.5,32 L40.5,29.5 L38.5,27.5 L41,27.5 Z"/>
    <path d="M14,38 L15,40.5 L17.5,40.5 L15.5,42.5 L16.5,45 L14,43 L11.5,45 L12.5,42.5 L10.5,40.5 L13,40.5 Z"/>
    <path d="M46,38 L47,40.5 L49.5,40.5 L47.5,42.5 L48.5,45 L46,43 L43.5,45 L44.5,42.5 L42.5,40.5 L45,40.5 Z"/>
    <path d="M14,52 L15,54.5 L17.5,54.5 L15.5,56.5 L16.5,59 L14,57 L11.5,59 L12.5,56.5 L10.5,54.5 L13,54.5 Z"/>
    <path d="M46,52 L47,54.5 L49.5,54.5 L47.5,56.5 L48.5,59 L46,57 L43.5,59 L44.5,56.5 L42.5,54.5 L45,54.5 Z"/>
    <path d="M18,65 L19,67.5 L21.5,67.5 L19.5,69.5 L20.5,72 L18,70 L15.5,72 L16.5,69.5 L14.5,67.5 L17,67.5 Z"/>
    <path d="M42,65 L43,67.5 L45.5,67.5 L43.5,69.5 L44.5,72 L42,70 L39.5,72 L40.5,69.5 L38.5,67.5 L41,67.5 Z"/>
    <path d="M30,75 L31.5,79 L36,79 L32.5,82 L34,86 L30,83 L26,86 L27.5,82 L24,79 L28.5,79 Z"/>
  </g>
  
  <!-- F pour France -->
  <text x="30" y="102" font-family="Arial, sans-serif" font-size="20" font-weight="bold" fill="white" text-anchor="middle">F</text>
  
  <!-- Tirets de séparation -->
  <text x="185" y="70" font-family="Arial, sans-serif" font-size="60" font-weight="bold" fill="#000000" text-anchor="middle">-</text>
  <text x="335" y="70" font-family="Arial, sans-serif" font-size="60" font-weight="bold" fill="#000000" text-anchor="middle">-</text>
  
  <!-- Indication département (optionnel) -->
  <g opacity="0.3">
    <rect x="460" y="10" width="50" height="30" fill="#003399" rx="4"/>
    <text x="485" y="30" font-family="Arial, sans-serif" font-size="18" font-weight="bold" fill="white" text-anchor="middle">75</text>
  </g>
</svg>